<svg id="visual" viewBox="0 0 900 600" width="900" height="600" xmlns="http://www.w3.org/2000/svg" xmlns:xlink="http://www.w3.org/1999/xlink" version="1.1"><rect x="0" y="0" width="900" height="600" fill="#f8f9f9"></rect><path d="M0 63L8.8 61.3C17.7 59.7 35.3 56.3 53 57.5C70.7 58.7 88.3 64.3 106 68.8C123.7 73.3 141.3 76.7 159 78.5C176.7 80.3 194.3 80.7 212 83.5C229.7 86.3 247.3 91.7 265 94.2C282.7 96.7 300.3 96.3 318 89.3C335.7 82.3 353.3 68.7 371 65.2C388.7 61.7 406.3 68.3 423.8 73.2C441.3 78 458.7 81 476.2 83.2C493.7 85.3 511.3 86.7 529 88C546.7 89.3 564.3 90.7 582 84.8C599.7 79 617.3 66 635 61.5C652.7 57 670.3 61 688 65C705.7 69 723.3 73 741 76.5C758.7 80 776.3 83 794 86C811.7 89 829.3 92 847 94.5C864.7 97 882.3 99 891.2 100L900 101L900 0L891.2 0C882.3 0 864.7 0 847 0C829.3 0 811.7 0 794 0C776.3 0 758.7 0 741 0C723.3 0 705.7 0 688 0C670.3 0 652.7 0 635 0C617.3 0 599.7 0 582 0C564.3 0 546.7 0 529 0C511.3 0 493.7 0 476.2 0C458.7 0 441.3 0 423.8 0C406.3 0 388.7 0 371 0C353.3 0 335.7 0 318 0C300.3 0 282.7 0 265 0C247.3 0 229.7 0 212 0C194.3 0 176.7 0 159 0C141.3 0 123.7 0 106 0C88.3 0 70.7 0 53 0C35.3 0 17.7 0 8.8 0L0 0Z" fill="#f8f9f9"></path><path d="M0 53L8.8 57C17.7 61 35.3 69 53 68.7C70.7 68.3 88.3 59.7 106 57.7C123.7 55.7 141.3 60.3 159 60C176.7 59.7 194.3 54.3 212 51C229.7 47.7 247.3 46.3 265 44.7C282.7 43 300.3 41 318 42.3C335.7 43.7 353.3 48.3 371 54.8C388.7 61.3 406.3 69.7 423.8 67.3C441.3 65 458.7 52 476.2 50C493.7 48 511.3 57 529 64C546.7 71 564.3 76 582 76C599.7 76 617.3 71 635 63.7C652.7 56.3 670.3 46.7 688 43.2C705.7 39.7 723.3 42.3 741 47.2C758.7 52 776.3 59 794 59.2C811.7 59.3 829.3 52.7 847 53.2C864.7 53.7 882.3 61.3 891.2 65.2L900 69L900 0L891.2 0C882.3 0 864.7 0 847 0C829.3 0 811.7 0 794 0C776.3 0 758.7 0 741 0C723.3 0 705.7 0 688 0C670.3 0 652.7 0 635 0C617.3 0 599.7 0 582 0C564.3 0 546.7 0 529 0C511.3 0 493.7 0 476.2 0C458.7 0 441.3 0 423.8 0C406.3 0 388.7 0 371 0C353.3 0 335.7 0 318 0C300.3 0 282.7 0 265 0C247.3 0 229.7 0 212 0C194.3 0 176.7 0 159 0C141.3 0 123.7 0 106 0C88.3 0 70.7 0 53 0C35.3 0 17.7 0 8.8 0L0 0Z" fill="#dee6e0"></path><path d="M0 37L8.8 36C17.7 35 35.3 33 53 36.7C70.7 40.3 88.3 49.7 106 50.7C123.7 51.7 141.3 44.3 159 42.3C176.7 40.3 194.3 43.7 212 41.7C229.7 39.7 247.3 32.3 265 30.5C282.7 28.7 300.3 32.3 318 34.5C335.7 36.7 353.3 37.3 371 40.8C388.7 44.3 406.3 50.7 423.8 52C441.3 53.3 458.7 49.7 476.2 49.5C493.7 49.3 511.3 52.7 529 50.3C546.7 48 564.3 40 582 35.3C599.7 30.7 617.3 29.3 635 28.7C652.7 28 670.3 28 688 30.5C705.7 33 723.3 38 741 39.2C758.7 40.3 776.3 37.7 794 38.3C811.7 39 829.3 43 847 46.5C864.7 50 882.3 53 891.2 54.5L900 56L900 0L891.2 0C882.3 0 864.7 0 847 0C829.3 0 811.7 0 794 0C776.3 0 758.7 0 741 0C723.3 0 705.7 0 688 0C670.3 0 652.7 0 635 0C617.3 0 599.7 0 582 0C564.3 0 546.7 0 529 0C511.3 0 493.7 0 476.2 0C458.7 0 441.3 0 423.8 0C406.3 0 388.7 0 371 0C353.3 0 335.7 0 318 0C300.3 0 282.7 0 265 0C247.3 0 229.7 0 212 0C194.3 0 176.7 0 159 0C141.3 0 123.7 0 106 0C88.3 0 70.7 0 53 0C35.3 0 17.7 0 8.8 0L0 0Z" fill="#d2d1c1"></path><path d="M0 21L8.8 21C17.7 21 35.3 21 53 20.7C70.7 20.3 88.3 19.7 106 22.3C123.7 25 141.3 31 159 32.5C176.7 34 194.3 31 212 26.3C229.7 21.7 247.3 15.3 265 16.3C282.7 17.3 300.3 25.7 318 29.7C335.7 33.7 353.3 33.3 371 33.5C388.7 33.7 406.3 34.3 423.8 33.3C441.3 32.3 458.7 29.7 476.2 26.3C493.7 23 511.3 19 529 17.2C546.7 15.3 564.3 15.7 582 18.8C599.7 22 617.3 28 635 31.3C652.7 34.7 670.3 35.3 688 32C705.7 28.7 723.3 21.3 741 19.3C758.7 17.3 776.3 20.7 794 22.7C811.7 24.7 829.3 25.3 847 25.7C864.7 26 882.3 26 891.2 26L900 26L900 0L891.2 0C882.3 0 864.7 0 847 0C829.3 0 811.7 0 794 0C776.3 0 758.7 0 741 0C723.3 0 705.7 0 688 0C670.3 0 652.7 0 635 0C617.3 0 599.7 0 582 0C564.3 0 546.7 0 529 0C511.3 0 493.7 0 476.2 0C458.7 0 441.3 0 423.8 0C406.3 0 388.7 0 371 0C353.3 0 335.7 0 318 0C300.3 0 282.7 0 265 0C247.3 0 229.7 0 212 0C194.3 0 176.7 0 159 0C141.3 0 123.7 0 106 0C88.3 0 70.7 0 53 0C35.3 0 17.7 0 8.8 0L0 0Z" fill="#d0b8a8"></path></svg>