<svg id="visual" viewBox="0 0 900 600" width="900" height="600" xmlns="http://www.w3.org/2000/svg" xmlns:xlink="http://www.w3.org/1999/xlink" version="1.1"><path d="M818 600L821 587.5C824 575 830 550 834.5 525C839 500 842 475 833 450C824 425 803 400 794 375C785 350 788 325 791 300C794 275 797 250 803 225C809 200 818 175 827 150C836 125 845 100 842 75C839 50 824 25 816.5 12.5L809 0L900 0L900 12.5C900 25 900 50 900 75C900 100 900 125 900 150C900 175 900 200 900 225C900 250 900 275 900 300C900 325 900 350 900 375C900 400 900 425 900 450C900 475 900 500 900 525C900 550 900 575 900 587.5L900 600Z" fill="#c6a4ac"></path><path d="M755 600L744.5 587.5C734 575 713 550 711.5 525C710 500 728 475 723.5 450C719 425 692 400 681.5 375C671 350 677 325 674 300C671 275 659 250 674 225C689 200 731 175 752 150C773 125 773 100 759.5 75C746 50 719 25 705.5 12.5L692 0L810 0L817.5 12.5C825 25 840 50 843 75C846 100 837 125 828 150C819 175 810 200 804 225C798 250 795 275 792 300C789 325 786 350 795 375C804 400 825 425 834 450C843 475 840 500 835.5 525C831 550 825 575 822 587.5L819 600Z" fill="#bd97a0"></path><path d="M611 600L608 587.5C605 575 599 550 597.5 525C596 500 599 475 599 450C599 425 596 400 581 375C566 350 539 325 522.5 300C506 275 500 250 527 225C554 200 614 175 644 150C674 125 674 100 666.5 75C659 50 644 25 636.5 12.5L629 0L693 0L706.5 12.5C720 25 747 50 760.5 75C774 100 774 125 753 150C732 175 690 200 675 225C660 250 672 275 675 300C678 325 672 350 682.5 375C693 400 720 425 724.5 450C729 475 711 500 712.5 525C714 550 735 575 745.5 587.5L756 600Z" fill="#b58a94"></path><path d="M557 600L554 587.5C551 575 545 550 543.5 525C542 500 545 475 545 450C545 425 542 400 524 375C506 350 473 325 459.5 300C446 275 452 250 477.5 225C503 200 548 175 570.5 150C593 125 593 100 587 75C581 50 569 25 563 12.5L557 0L630 0L637.5 12.5C645 25 660 50 667.5 75C675 100 675 125 645 150C615 175 555 200 528 225C501 250 507 275 523.5 300C540 325 567 350 582 375C597 400 600 425 600 450C600 475 597 500 598.5 525C600 550 606 575 609 587.5L612 600Z" fill="#ac7d88"></path><path d="M476 600L468.5 587.5C461 575 446 550 438.5 525C431 500 431 475 441.5 450C452 425 473 400 458 375C443 350 392 325 377 300C362 275 383 250 413 225C443 200 482 175 498.5 150C515 125 509 100 503 75C497 50 491 25 488 12.5L485 0L558 0L564 12.5C570 25 582 50 588 75C594 100 594 125 571.5 150C549 175 504 200 478.5 225C453 250 447 275 460.5 300C474 325 507 350 525 375C543 400 546 425 546 450C546 475 543 500 544.5 525C546 550 552 575 555 587.5L558 600Z" fill="#9d717b"></path><path d="M179 600L182 587.5C185 575 191 550 195.5 525C200 500 203 475 218 450C233 425 260 400 261.5 375C263 350 239 325 233 300C227 275 239 250 263 225C287 200 323 175 335 150C347 125 335 100 315.5 75C296 50 269 25 255.5 12.5L242 0L486 0L489 12.5C492 25 498 50 504 75C510 100 516 125 499.5 150C483 175 444 200 414 225C384 250 363 275 378 300C393 325 444 350 459 375C474 400 453 425 442.5 450C432 475 432 500 439.5 525C447 550 462 575 469.5 587.5L477 600Z" fill="#8e666f"></path><path d="M0 600L0 587.5C0 575 0 550 0 525C0 500 0 475 0 450C0 425 0 400 0 375C0 350 0 325 0 300C0 275 0 250 0 225C0 200 0 175 0 150C0 125 0 100 0 75C0 50 0 25 0 12.5L0 0L243 0L256.5 12.5C270 25 297 50 316.5 75C336 100 348 125 336 150C324 175 288 200 264 225C240 250 228 275 234 300C240 325 264 350 262.5 375C261 400 234 425 219 450C204 475 201 500 196.5 525C192 550 186 575 183 587.5L180 600Z" fill="#7f5b63"></path></svg>